<svg xmlns="http://www.w3.org/2000/svg"
     width="525px" height="500px"
     viewBox="0 0 375 394">
  <path id="Selection #1"
        fill="none" stroke="black" stroke-width="1"
        d="M 8.00,0.00
           C 8.00,0.00 8.00,1.00 8.00,1.00
             8.00,1.00 9.00,0.00 9.00,0.00
             9.00,0.00 8.00,0.00 8.00,0.00 Z
           M 153.00,158.00
           C 153.00,158.00 132.00,153.80 132.00,153.80
             132.00,153.80 102.00,147.41 102.00,147.41
             93.64,144.79 94.33,141.11 88.00,140.22
             75.57,138.45 74.31,153.00 81.11,156.83
             88.63,161.06 94.46,153.74 97.42,153.21
             97.42,153.21 109.00,155.08 109.00,155.08
             109.00,155.08 139.00,161.40 139.00,161.40
             142.52,162.11 150.21,162.94 151.26,167.07
             152.17,170.65 147.60,172.67 145.00,173.74
             145.00,173.74 120.00,182.95 120.00,182.95
             120.00,182.95 72.00,200.81 72.00,200.81
             72.00,200.81 46.00,210.53 46.00,210.53
             46.00,210.53 35.00,214.80 35.00,214.80
             25.87,217.55 23.13,210.23 14.00,213.74
             2.27,218.24 3.97,238.27 20.00,236.89
             33.81,235.71 26.90,224.87 37.00,220.81
             37.00,220.81 61.00,212.13 61.00,212.13
             61.00,212.13 121.00,189.20 121.00,189.20
             121.00,189.20 146.00,180.00 146.00,180.00
             148.37,179.18 153.35,176.80 155.26,179.42
             156.68,181.37 155.09,183.45 153.85,184.96
             153.85,184.96 141.09,197.70 141.09,197.70
             141.09,197.70 121.00,217.00 121.00,217.00
             118.79,219.20 112.23,226.09 110.00,227.09
             106.38,229.25 103.94,226.92 100.00,227.09
             93.01,226.80 87.13,232.41 85.70,239.00
             81.57,257.96 111.20,265.13 115.25,245.00
             116.52,239.56 113.96,237.70 115.25,234.00
             116.48,229.63 129.04,218.96 133.00,215.00
             133.00,215.00 162.00,186.00 162.00,186.00
             161.69,192.29 159.18,199.84 157.42,206.00
             157.42,206.00 148.74,237.00 148.74,237.00
             148.74,237.00 129.43,306.00 129.43,306.00
             129.43,306.00 119.37,341.00 119.37,341.00
             119.37,341.00 112.99,361.59 112.99,361.59
             110.99,364.46 100.07,367.07 101.26,377.00
             102.97,391.23 126.61,390.24 124.80,374.00
             124.12,367.89 120.20,366.65 120.15,362.72
             120.12,359.96 124.55,345.36 125.67,342.00
             125.67,342.00 129.03,330.00 129.03,330.00
             129.03,330.00 135.67,308.00 135.67,308.00
             135.67,308.00 152.09,249.00 152.09,249.00
             152.09,249.00 169.00,189.00 169.00,189.00
             171.49,197.75 169.01,207.08 169.00,216.00
             169.00,216.00 169.00,228.00 169.00,228.00
             169.00,228.00 168.00,244.00 168.00,244.00
             168.00,244.00 167.00,270.00 167.00,270.00
             167.00,270.00 166.00,287.00 166.00,287.00
             166.00,287.00 164.69,318.96 164.69,318.96
             163.00,325.37 155.02,324.17 154.11,334.00
             153.30,342.71 159.33,348.64 168.00,347.89
             177.03,347.12 180.81,339.22 178.43,331.00
             176.97,325.97 173.61,325.25 172.02,322.63
             170.53,320.16 170.99,313.08 171.00,310.00
             171.00,310.00 172.00,294.00 172.00,294.00
             172.00,294.00 174.00,236.00 174.00,236.00
             174.00,236.00 175.00,221.00 175.00,221.00
             175.00,221.00 176.00,201.00 176.00,201.00
             176.02,196.30 174.79,190.04 181.02,189.15
             183.22,188.84 185.72,189.15 187.47,190.60
             189.29,192.11 197.92,207.75 199.77,211.00
             199.77,211.00 225.01,257.00 225.01,257.00
             227.06,260.50 236.47,275.87 236.60,278.72
             236.76,281.99 233.63,283.39 233.11,289.00
             231.23,309.20 262.04,309.20 259.87,289.00
             258.31,274.49 246.75,280.63 241.63,272.94
             241.63,272.94 205.70,209.00 205.70,209.00
             205.70,209.00 194.68,189.00 194.68,189.00
             194.15,187.44 193.02,182.74 195.48,182.17
             198.05,181.56 202.73,186.45 204.58,188.12
             204.58,188.12 226.00,207.83 226.00,207.83
             226.00,207.83 300.00,273.91 300.00,273.91
             302.72,276.45 308.49,280.97 310.11,284.04
             311.88,287.40 310.24,298.15 321.00,299.62
             334.26,301.43 338.04,280.97 324.00,278.43
             320.94,277.88 318.73,278.87 316.00,280.00
             316.00,280.00 290.68,256.48 290.68,256.48
             290.68,256.48 230.00,202.17 230.00,202.17
             230.00,202.17 200.00,174.00 200.00,174.00
             200.00,174.00 201.00,173.00 201.00,173.00
             201.00,173.00 292.00,203.33 292.00,203.33
             294.26,204.07 297.76,204.90 299.44,206.56
             301.87,208.95 303.22,218.59 313.00,218.63
             327.84,218.70 329.31,196.88 315.00,195.22
             307.41,194.34 305.55,199.73 299.96,198.95
             299.96,198.95 277.00,191.67 277.00,191.67
             277.00,191.67 225.00,174.66 225.00,174.66
             217.04,172.10 209.30,168.28 201.00,167.00
             202.86,161.34 206.73,161.06 212.00,159.77
             212.00,159.77 233.00,154.37 233.00,154.37
             233.00,154.37 294.00,138.71 294.00,138.71
             294.00,138.71 331.00,128.47 331.00,128.47
             333.80,127.77 341.65,125.45 344.00,125.86
             347.38,126.45 349.89,129.61 354.00,130.58
             361.83,132.42 368.79,125.91 367.77,118.00
             366.78,110.28 357.98,105.52 351.04,109.31
             345.77,112.19 346.98,116.38 340.98,119.20
             340.98,119.20 297.00,130.91 297.00,130.91
             297.00,130.91 268.00,138.48 268.00,138.48
             268.00,138.48 238.00,146.50 238.00,146.50
             238.00,146.50 208.00,154.00 208.00,154.00
             208.00,154.00 269.00,118.57 269.00,118.57
             269.00,118.57 299.00,100.96 299.00,100.96
             303.74,98.91 310.77,102.88 315.70,99.98
             323.70,95.27 320.89,81.74 312.00,80.23
             299.32,78.07 299.16,90.35 296.44,93.79
             294.96,95.66 289.18,99.37 286.91,100.69
             286.91,100.69 227.28,135.08 227.28,135.08
             219.86,139.26 204.30,149.74 197.00,152.00
             195.91,149.83 193.82,147.30 193.61,144.96
             193.36,142.19 195.18,138.60 196.05,136.00
             196.05,136.00 199.86,122.00 199.86,122.00
             199.86,122.00 213.08,76.00 213.08,76.00
             213.08,76.00 218.88,55.00 218.88,55.00
             219.50,53.41 220.21,51.76 221.50,50.58
             223.33,48.91 233.91,46.74 232.75,36.00
             231.22,21.81 207.46,22.64 209.34,39.00
             209.94,44.22 212.91,45.98 213.03,50.00
             213.15,54.05 207.34,71.98 205.91,77.00
             205.91,77.00 195.58,114.00 195.58,114.00
             195.58,114.00 189.00,138.00 189.00,138.00
             189.00,138.00 185.72,114.00 185.72,114.00
             185.72,114.00 181.00,69.00 181.00,69.00
             192.03,65.25 185.66,47.78 173.02,52.74
             168.12,54.66 165.72,60.20 168.18,64.96
             169.88,68.26 172.82,69.36 174.49,73.04
             176.47,77.40 177.69,97.22 178.09,103.00
             178.09,103.00 179.71,114.00 179.71,114.00
             179.71,114.00 182.00,140.85 182.00,140.85
             179.50,141.00 169.84,141.42 168.21,140.85
             165.80,139.62 163.46,135.27 162.14,133.00
             162.14,133.00 150.52,112.00 150.52,112.00
             150.52,112.00 108.85,39.00 108.85,39.00
             107.25,36.20 102.03,27.54 101.47,25.00
             100.61,21.12 106.49,9.42 95.00,7.43
             87.42,6.12 81.76,14.61 85.86,20.89
             88.67,25.22 91.84,23.78 96.70,31.00
             96.70,31.00 110.86,56.00 110.86,56.00
             110.86,56.00 130.67,90.00 130.67,90.00
             130.67,90.00 145.32,116.00 145.32,116.00
             145.32,116.00 158.06,139.00 158.06,139.00
             159.94,142.11 162.05,145.91 158.06,148.37
             154.71,150.26 151.27,146.67 149.00,144.71
             149.00,144.71 129.00,126.85 129.00,126.85
             129.00,126.85 91.00,93.01 91.00,93.01
             87.16,89.27 79.27,84.35 78.94,78.83
             78.64,73.73 79.46,70.27 74.67,66.76
             63.02,58.24 48.66,71.85 56.25,83.67
             61.04,91.14 71.33,87.81 74.00,88.50
             77.60,89.42 84.85,96.69 88.00,99.42
             88.00,99.42 114.00,122.72 114.00,122.72
             122.24,129.88 147.76,150.99 153.00,158.00 Z
           M 338.00,132.00
           C 338.00,132.00 338.00,133.00 338.00,133.00
             338.00,133.00 339.00,132.00 339.00,132.00
             339.00,132.00 338.00,132.00 338.00,132.00 Z
           M 66.00,197.00
           C 66.00,197.00 66.00,198.00 66.00,198.00
             66.00,198.00 67.00,197.00 67.00,197.00
             67.00,197.00 66.00,197.00 66.00,197.00 Z
           M 290.00,272.00
           C 290.00,272.00 290.00,273.00 290.00,273.00
             290.00,273.00 291.00,272.00 291.00,272.00
             291.00,272.00 290.00,272.00 290.00,272.00 Z" />
</svg>
